Coordinates
version=1
nRows=9
nColumns=36
inDegrees=yes

Units are S.I. units (second, meters, Newtons, ...)
If the header above contains a line with 'inDegrees', this indicates whether rotational values are in degrees (yes) or radians (no).

endheader
time	pelvis_tilt	pelvis_list	pelvis_rotation	pelvis_tx	pelvis_ty	pelvis_tz	hip_flexion_r	hip_adduction_r	hip_rotation_r	knee_angle_r	knee_angle_r_beta	ankle_angle_r	subtalar_angle_r	mtp_angle_r	hip_flexion_l	hip_adduction_l	hip_rotation_l	knee_angle_l	knee_angle_l_beta	ankle_angle_l	subtalar_angle_l	mtp_angle_l	lumbar_extension	lumbar_bending	lumbar_rotation	arm_flex_r	arm_add_r	arm_rot_r	elbow_flex_r	pro_sup_r	arm_flex_l	arm_add_l	arm_rot_l	elbow_flex_l	pro_sup_l
      0.58000000	     -5.32862872	      4.63573132	     84.20345715	     -0.22411109	      0.94753768	      0.35029903	     -4.50704039	     -9.90165649	     -0.92011743	     51.66986984	      0.90180935	    -26.68963325	     -8.75492670	     -7.50121381	     14.72499828	      6.17198692	    -14.57820059	     21.63162638	      0.37754310	      0.33817176	     -8.84581020	     -7.50121381	    -15.55344987	     -7.01660965	      4.24000886	      3.62726612	     -3.51292802	    -30.16693842	     55.21285199	     95.17264502	     -0.54967443	     -6.74954584	    -46.91822550	     27.86278103	     83.14531912
      0.59000000	     -5.48868538	      4.45057298	     83.73562812	     -0.22472268	      0.94921271	      0.33885323	     -2.41047950	    -10.45295456	     -0.58534600	     54.34633163	      0.94852242	    -26.70272417	     -9.04125506	     -7.50115207	     13.86898804	      6.44462854	    -15.02280657	     21.05758873	      0.36752426	      0.92863923	     -8.41536655	     -7.50115207	    -15.41661013	     -7.26725252	      4.35296004	      3.56902786	     -3.54568882	    -29.99647126	     54.65163790	     95.34902926	     -0.00163438	     -6.67068803	    -46.57199912	     28.23463687	     83.21399904
      0.60000000	     -5.46512973	      4.23227683	     83.64698504	     -0.22545198	      0.95080739	      0.32820994	     -0.36668096	    -10.48799749	     -0.23970285	     56.81144707	      0.99154680	    -25.80326273	    -10.88694151	     -7.50110834	     13.17083039	      6.55683801	    -15.07701116	     20.68370365	      0.36099873	      1.63181734	     -7.96516828	     -7.50110834	    -15.43524731	     -7.26687298	      4.09972831	      3.65948293	     -3.53832111	    -29.77892645	     54.12484912	     95.22011159	      0.72271617	     -6.72562045	    -46.21844933	     28.43556921	     83.09597339
      0.61000000	     -5.53879101	      3.73749468	     83.21459459	     -0.22585820	      0.95199109	      0.31756562	      2.19877332	    -10.54333359	      0.34713664	     59.17047299	      1.03271957	    -24.18934877	    -13.39791664	     -7.50105687	     12.69186264	      6.66239518	    -15.60749108	     20.10647014	      0.35092410	      2.07882876	     -7.27017635	     -7.50105687	    -15.04173434	     -7.38117420	      4.15926093	      3.66913648	     -3.55442663	    -29.54390667	     53.58329725	     95.31925957	      1.31214664	     -6.70918690	    -45.66599077	     28.85617198	     83.10366244
      0.62000000	     -5.51680970	      3.49463464	     82.99059039	     -0.22656150	      0.95368283	      0.30671698	      4.33501143	    -10.49807890	      0.62953855	     61.07514690	      1.06596240	    -22.03506058	    -15.82817746	     -7.50102601	     11.84485534	      6.75664122	    -16.05464338	     19.39489088	      0.33850470	      2.60568290	     -6.51503428	     -7.50102601	    -14.96928032	     -7.33550767	      4.04461276	      3.67829479	     -3.59400553	    -29.43798267	     53.12073861	     95.43238176	      2.02846340	     -6.71663836	    -45.21544803	     29.08702831	     83.16209502
      0.63000000	     -5.45924857	      3.38395373	     82.84083065	     -0.22748465	      0.95547558	      0.29579058	      6.26196713	    -10.31889219	      0.94471716	     62.60774183	      1.09271123	    -20.07803661	    -18.53390051	     -7.50101591	     10.78913527	      6.90126319	    -16.32158483	     18.53941670	      0.32357386	      3.00878370	     -5.86000304	     -7.50101591	    -15.01445280	     -7.23548037	      3.83765106	      3.71336869	     -3.64914915	    -29.29396479	     52.66662200	     95.67030176	      2.79505662	     -6.64575516	    -44.82996884	     29.26797681	     83.29912650
      0.64000000	     -5.40697527	      2.69439484	     82.47724200	     -0.22790462	      0.95626681	      0.28511822	      8.94832405	    -10.03455350	      1.36922104	     63.98222273	      1.11670045	    -18.70977853	    -22.65258105	     -7.50097925	     10.53839574	      6.76834084	    -17.48045185	     18.06164019	      0.31523509	      3.64708968	     -4.16101548	     -7.50097925	    -14.39619974	     -7.13956977	      3.92397368	      3.51995159	     -3.68558707	    -29.28054928	     52.38079732	     96.45497105	      3.26290352	     -6.65242290	    -43.84000163	     29.91357437	     83.78092428
      0.65000000	     -5.31086194	      2.61167022	     82.56850036	     -0.22893053	      0.95802153	      0.27413174	     10.68046303	     -9.81285798	      1.33325544	     64.83918769	      1.13165731	    -16.79041033	    -25.82478516	     -7.50092219	      9.41272244	      6.90104696	    -17.74252400	     17.15195525	      0.29935809	      4.11236688	     -2.89587749	     -7.50092219	    -14.48863113	     -6.96170501	      3.52485338	      3.45525492	     -3.68148929	    -29.34317136	     52.11027102	     97.06514989	      3.81119587	     -6.81615735	    -42.44750742	     30.37439993	     83.90525559
      0.66000000	     -5.29279138	      2.38202427	     82.79924914	     -0.23034270	      0.95936064	      0.26297529	     12.45570641	     -9.79367364	      0.96603150	     65.37574752	      1.14102205	    -14.49056649	    -28.51637087	     -7.50076050	      8.46785148	      7.17116886	    -17.73954253	     16.22161686	      0.28312062	      4.28804344	     -2.32373972	     -7.50076050	    -14.40008249	     -6.78624150	      3.08872868	      3.24555851	     -3.67767103	    -29.67959636	     51.97564302	     99.39653821	      4.43802819	     -6.94194566	    -41.21901589	     30.78187225	     85.02014528
